 <svg
      width="25"
      height="25"
      viewBox="0 0 73 77"
      fill="none"
      xmlns="http://www.w3.org/2000/svg"
    >
      <path
        d="M30.0909 62V57.9091L55.1818 20.4545H29.8182V15.4545H61.9091V19.5455L36.8182 57H62.1818V62H30.0909Z"
        fill="white"
      />
      <path
        d="M66.5455 15.4545V62H61.0909L35.7273 25.4545H35.2727V62H29.6364V15.4545H35.0909L60.5455 52.0909H61V15.4545H66.5455Z"
        fill="white"
        
      />
      <path
        d="M29.6364 62V15.4545H57.7273V20.4545H35.2727V36.1818H56.2727V41.1818H35.2727V57H58.0909V62H29.6364Z"
        fill="white"
        
      />
      <path
        d="M35.3636 62V15.4545H19.6364C16 15.4545 13.0152 16.0758 10.6818 17.3182C8.34848 18.5455 6.62121 20.2348 5.5 22.3864C4.37879 24.5379 3.81818 26.9848 3.81818 29.7273C3.81818 32.4697 4.37879 34.9015 5.5 37.0227C6.62121 39.1439 8.34091 40.8106 10.6591 42.0227C12.9773 43.2197 15.9394 43.8182 19.5455 43.8182H32.2727V38.7273H19.7273C17.2424 38.7273 15.2424 38.3636 13.7273 37.6364C12.197 36.9091 11.0909 35.8788 10.4091 34.5455C9.71212 33.197 9.36364 31.5909 9.36364 29.7273C9.36364 27.8636 9.71212 26.2348 10.4091 24.8409C11.1061 23.447 12.2197 22.3712 13.75 21.6136C15.2803 20.8409 17.303 20.4545 19.8182 20.4545H29.7273V62H35.3636ZM13.4545 41.0909L2 62H8.54545L19.8182 41.0909H13.4545Z"
        fill="white"
        
      />
    </svg>